<svg width="20" height="20" viewBox="0 0 20 20" fill="none" xmlns="http://www.w3.org/2000/svg">
<path fill-rule="evenodd" clip-rule="evenodd" d="M0 4C0 2.93913 0.421427 1.92172 1.17157 1.17157C1.92172 0.421427 2.93913 0 4 0H16C17.0609 0 18.0783 0.421427 18.8284 1.17157C19.5786 1.92172 20 2.93913 20 4V16C20 17.0609 19.5786 18.0783 18.8284 18.8284C18.0783 19.5786 17.0609 20 16 20H4C2.93913 20 1.92172 19.5786 1.17157 18.8284C0.421427 18.0783 0 17.0609 0 16V4ZM4 2C3.46957 2 2.96086 2.21071 2.58579 2.58579C2.21071 2.96086 2 3.46957 2 4V16C2 16.5304 2.21071 17.0391 2.58579 17.4142C2.96086 17.7893 3.46957 18 4 18H10V11H9C8.73478 11 8.48043 10.8946 8.29289 10.7071C8.10536 10.5196 8 10.2652 8 10C8 9.73478 8.10536 9.48043 8.29289 9.29289C8.48043 9.10536 8.73478 9 9 9H10V7.5C10 6.57174 10.3687 5.6815 11.0251 5.02513C11.6815 4.36875 12.5717 4 13.5 4H14.1C14.3652 4 14.6196 4.10536 14.8071 4.29289C14.9946 4.48043 15.1 4.73478 15.1 5C15.1 5.26522 14.9946 5.51957 14.8071 5.70711C14.6196 5.89464 14.3652 6 14.1 6H13.5C13.303 6 13.108 6.0388 12.926 6.11418C12.744 6.18956 12.5786 6.30005 12.4393 6.43934C12.3001 6.57863 12.1896 6.74399 12.1142 6.92597C12.0388 7.10796 12 7.30302 12 7.5V9H14.1C14.3652 9 14.6196 9.10536 14.8071 9.29289C14.9946 9.48043 15.1 9.73478 15.1 10C15.1 10.2652 14.9946 10.5196 14.8071 10.7071C14.6196 10.8946 14.3652 11 14.1 11H12V18H16C16.5304 18 17.0391 17.7893 17.4142 17.4142C17.7893 17.0391 18 16.5304 18 16V4C18 3.46957 17.7893 2.96086 17.4142 2.58579C17.0391 2.21071 16.5304 2 16 2H4Z" fill="white"/>
</svg>
