<svg width="50" height="47" viewBox="0 0 50 47" fill="none" xmlns="http://www.w3.org/2000/svg">
<path fill-rule="evenodd" clip-rule="evenodd" d="M13.5416 31.3333H33.3333C37.2617 31.3333 39.2259 31.3333 40.4463 30.1862C41.6666 29.039 41.6666 27.1927 41.6666 23.5V13.7083C41.6666 10.0157 41.6666 8.16933 40.4463 7.02217C39.2259 5.875 37.2617 5.875 33.3333 5.875H16.6666C12.7383 5.875 10.7741 5.875 9.5537 7.02217C8.33331 8.16933 8.33331 10.0157 8.33331 13.7083V36.2292C8.33331 33.5253 10.6652 31.3333 13.5416 31.3333ZM31.9349 16.3953C32.3373 16.017 32.3569 15.3842 31.9786 14.9818C31.6003 14.5793 30.9675 14.5598 30.5651 14.938L22.9166 22.1276L19.4349 18.8547C19.0325 18.4764 18.3996 18.496 18.0214 18.8984C17.6431 19.3008 17.6627 19.9337 18.0651 20.312L21.5468 23.5848C22.3167 24.3085 23.5166 24.3085 24.2865 23.5848L31.9349 16.3953Z" fill="white"/>
</svg>
