<svg width="50" height="47" viewBox="0 0 50 47" fill="none" xmlns="http://www.w3.org/2000/svg">
<path fill-rule="evenodd" clip-rule="evenodd" d="M13.5416 31.3333H33.3333C37.2617 31.3333 39.2259 31.3333 40.4463 30.1862C41.6666 29.039 41.6666 27.1927 41.6666 23.5V13.7083C41.6666 10.0157 41.6666 8.16933 40.4463 7.02217C39.2259 5.875 37.2617 5.875 33.3333 5.875H16.6666C12.7383 5.875 10.7741 5.875 9.5537 7.02217C8.33331 8.16933 8.33331 10.0157 8.33331 13.7083V36.2292C8.33331 33.5253 10.6652 31.3333 13.5416 31.3333ZM31.5924 16.031C31.7936 15.8418 31.8034 15.5254 31.6143 15.3242C31.4252 15.123 31.1087 15.1132 30.9075 15.3024L23.2591 22.4919C23.0666 22.6728 22.7667 22.6728 22.5742 22.4919L19.0924 19.219C18.8912 19.0299 18.5748 19.0397 18.3857 19.2409C18.1965 19.4421 18.2063 19.7585 18.4075 19.9476L21.8893 23.2205C22.4667 23.7632 23.3666 23.7632 23.944 23.2205L31.5924 16.031Z" fill="white"/>
<path d="M40.4463 30.1862L38.734 28.3646L38.734 28.3646L40.4463 30.1862ZM40.4463 7.02217L38.734 8.84373L38.734 8.84374L40.4463 7.02217ZM9.5537 7.02217L11.266 8.84373L11.266 8.84373L9.5537 7.02217ZM31.5924 16.031L29.8802 14.2094L29.8802 14.2094L31.5924 16.031ZM30.9075 15.3024L32.6198 17.1239L32.6198 17.1239L30.9075 15.3024ZM23.2591 22.4919L21.5468 20.6703L21.5468 20.6703L23.2591 22.4919ZM22.5742 22.4919L24.2865 20.6703L24.2865 20.6703L22.5742 22.4919ZM19.0924 19.219L20.8047 17.3974L20.8047 17.3974L19.0924 19.219ZM18.3857 19.2409L16.5641 17.5286L16.5641 17.5286L18.3857 19.2409ZM18.4075 19.9476L16.6952 21.7692L16.6952 21.7692L18.4075 19.9476ZM21.8893 23.2205L23.6016 21.3989H23.6016L21.8893 23.2205ZM23.944 23.2205L22.2317 21.3989L22.2317 21.3989L23.944 23.2205ZM33.3333 28.8333H13.5416V33.8333H33.3333V28.8333ZM38.734 28.3646C38.6703 28.4245 38.4763 28.5979 37.5918 28.7097C36.6505 28.8286 35.364 28.8333 33.3333 28.8333V33.8333C35.231 33.8333 36.8908 33.838 38.2187 33.6702C39.6035 33.4952 41.0018 33.095 42.1585 32.0077L38.734 28.3646ZM39.1666 23.5C39.1666 25.4214 39.1606 26.5951 39.0393 27.4437C38.9306 28.2037 38.7758 28.3253 38.734 28.3646L42.1585 32.0077C43.3371 30.8999 43.7925 29.5248 43.9889 28.1516C44.1726 26.8671 44.1666 25.2713 44.1666 23.5H39.1666ZM39.1666 13.7083V23.5H44.1666V13.7083H39.1666ZM38.734 8.84374C38.7758 8.88303 38.9306 9.00468 39.0393 9.76465C39.1606 10.6132 39.1666 11.7869 39.1666 13.7083H44.1666C44.1666 11.9371 44.1726 10.3413 43.9889 9.05672C43.7925 7.68357 43.3371 6.30846 42.1585 5.20059L38.734 8.84374ZM33.3333 8.375C35.364 8.375 36.6505 8.3797 37.5918 8.49867C38.4763 8.61045 38.6703 8.78387 38.734 8.84373L42.1585 5.2006C41.0018 4.11329 39.6035 3.71314 38.2187 3.53812C36.8908 3.3703 35.231 3.375 33.3333 3.375V8.375ZM16.6666 8.375H33.3333V3.375H16.6666V8.375ZM11.266 8.84373C11.3297 8.78387 11.5237 8.61045 12.4081 8.49867C13.3495 8.3797 14.6359 8.375 16.6666 8.375V3.375C14.769 3.375 13.1092 3.3703 11.7812 3.53812C10.3964 3.71314 8.99813 4.11329 7.84143 5.2006L11.266 8.84373ZM10.8333 13.7083C10.8333 11.7869 10.8393 10.6132 10.9607 9.76465C11.0694 9.00468 11.2242 8.88303 11.266 8.84373L7.84143 5.2006C6.66284 6.30847 6.20745 7.68357 6.01105 9.05672C5.82732 10.3413 5.83331 11.9371 5.83331 13.7083H10.8333ZM10.8333 36.2292V13.7083H5.83331V36.2292H10.8333ZM13.5416 28.8333C9.43243 28.8333 5.83331 32.0011 5.83331 36.2292H10.8333C10.8333 35.0495 11.8979 33.8333 13.5416 33.8333V28.8333ZM29.7927 17.0365C29.0362 16.2317 29.0753 14.9659 29.8802 14.2094L33.3047 17.8526C34.5119 16.7178 34.5707 14.8192 33.4359 13.6119L29.7927 17.0365ZM32.6198 17.1239C31.815 17.8805 30.5493 17.8413 29.7927 17.0365L33.4359 13.6119C32.3011 12.4047 30.4025 12.346 29.1952 13.4808L32.6198 17.1239ZM24.9714 24.3134L32.6198 17.1239L29.1953 13.4808L21.5468 20.6703L24.9714 24.3134ZM20.8619 24.3134C22.0167 25.3989 23.8166 25.3989 24.9714 24.3134L21.5468 20.6703C22.3167 19.9466 23.5166 19.9466 24.2865 20.6703L20.8619 24.3134ZM17.3802 21.0406L20.8619 24.3134L24.2865 20.6703L20.8047 17.3974L17.3802 21.0406ZM20.2072 20.9532C19.4507 21.758 18.185 21.7971 17.3802 21.0406L20.8047 17.3974C19.5975 16.2627 17.6989 16.3214 16.5641 17.5286L20.2072 20.9532ZM20.1198 18.1261C20.9246 18.8826 20.9638 20.1483 20.2072 20.9531L16.5641 17.5286C15.4293 18.7358 15.488 20.6344 16.6952 21.7692L20.1198 18.1261ZM23.6016 21.3989L20.1198 18.1261L16.6952 21.7692L20.177 25.0421L23.6016 21.3989ZM22.2317 21.3989C22.6167 21.0371 23.2166 21.0371 23.6016 21.3989L20.177 25.0421C21.7167 26.4894 24.1166 26.4894 25.6563 25.0421L22.2317 21.3989ZM29.8802 14.2094L22.2317 21.3989L25.6563 25.0421L33.3047 17.8526L29.8802 14.2094ZM22.9166 38.625H13.5416V43.625H22.9166V38.625ZM5.83331 36.2292C5.83331 40.4572 9.43243 43.625 13.5416 43.625V38.625C11.8979 38.625 10.8333 37.4089 10.8333 36.2292H5.83331Z" fill="#57D26B"/>
</svg>
