<svg width="28" height="28" viewBox="0 0 28 28" fill="none" xmlns="http://www.w3.org/2000/svg">
<path opacity="0.6" d="M2.67962 3.95196L5.92447 0.707107C6.315 0.316582 6.94816 0.316582 7.33869 0.707106L12.0297 5.39816C12.4203 5.78868 12.4203 6.42184 12.0297 6.81237L8.92179 9.92032C8.4656 10.3765 8.3525 11.0734 8.64102 11.6505C10.3089 14.9863 13.0137 17.6911 16.3495 19.359C16.9266 19.6475 17.6235 19.5344 18.0797 19.0782L21.1876 15.9703C21.5782 15.5797 22.2113 15.5797 22.6018 15.9703L27.2929 20.6613C27.6834 21.0518 27.6834 21.685 27.2929 22.0755L24.048 25.3204C21.9367 27.4317 18.5941 27.6693 16.2054 25.8777L10.7865 21.8135C9.04294 20.5059 7.49411 18.9571 6.18647 17.2135L2.12226 11.7946C0.330722 9.40588 0.56827 6.06331 2.67962 3.95196Z" fill="black"/>
</svg>
