<svg width="22" height="19" viewBox="0 0 22 19" fill="none" xmlns="http://www.w3.org/2000/svg">
<path fill-rule="evenodd" clip-rule="evenodd" d="M6.84475 2.27475C9.43675 1.90775 12.5628 1.90775 15.1548 2.27475C17.5098 2.60875 19.3348 4.26075 19.6828 6.04075C20.1058 8.19575 20.1058 10.8037 19.6828 12.9587C19.3338 14.7387 17.5098 16.3908 15.1548 16.7248C12.5628 17.0918 9.43575 17.0918 6.84475 16.7248C4.48975 16.3908 2.66575 14.7387 2.31675 12.9587C1.89375 10.8037 1.89375 8.19575 2.31675 6.04075C2.66575 4.26075 4.48975 2.60875 6.84475 2.27475V2.27475ZM15.4347 0.29475C12.6577 -0.09825 9.34175 -0.09825 6.56475 0.29475C3.54975 0.72175 0.89975 2.87275 0.35475 5.65675C-0.11825 8.06575 -0.11825 10.9338 0.35475 13.3428C0.89975 16.1268 3.54975 18.2778 6.56475 18.7048C9.34175 19.0978 12.6577 19.0978 15.4347 18.7048C18.4497 18.2778 21.0998 16.1268 21.6448 13.3428C22.1178 10.9338 22.1178 8.06575 21.6448 5.65675C21.0998 2.87275 18.4497 0.72175 15.4347 0.29475V0.29475ZM9.55475 4.66775C9.40415 4.56727 9.2291 4.50956 9.04827 4.50078C8.86744 4.49199 8.68761 4.53247 8.52798 4.61788C8.36835 4.70329 8.23491 4.83043 8.14188 4.98574C8.04884 5.14105 7.99972 5.31871 7.99975 5.49975V13.4998C7.99972 13.6808 8.04884 13.8584 8.14188 14.0138C8.23491 14.1691 8.36835 14.2962 8.52798 14.3816C8.68761 14.467 8.86744 14.5075 9.04827 14.4987C9.2291 14.4899 9.40415 14.4322 9.55475 14.3318L15.5548 10.3317C15.6917 10.2404 15.804 10.1167 15.8817 9.97157C15.9593 9.82643 16 9.66436 16 9.49975C16 9.33514 15.9593 9.17307 15.8817 9.02793C15.804 8.88279 15.6917 8.75907 15.5548 8.66775L9.55475 4.66775ZM13.1967 9.49975L9.99975 11.6318V7.36875L13.1967 9.49975Z" fill="white"/>
</svg>
